<?xml version="1.0" encoding="UTF-8"?>
<svg xmlns="http://www.w3.org/2000/svg" viewBox="0 0 100 100" fill="none">
  <!-- Нычка: спортивная сумка -->
  <!-- Тень -->
  <ellipse cx="50" cy="88" rx="38" ry="4" fill="#000" opacity=".3"/>
  <!-- Тело сумки -->
  <path d="M14 50 Q14 44 22 42 L78 42 Q86 44 86 50 L84 80 Q84 84 78 84 L22 84 Q16 84 16 80 Z" fill="#1a1612" stroke="#e8a44a" stroke-width="2"/>
  <!-- Ручки -->
  <path d="M32 42 Q32 30 42 30 L58 30 Q68 30 68 42" stroke="#1a1612" stroke-width="5" fill="none"/>
  <path d="M34 42 Q34 32 42 32 L58 32 Q66 32 66 42" stroke="#e8a44a" stroke-width="1.5" fill="none"/>
  <!-- Молния -->
  <line x1="14" y1="50" x2="86" y2="50" stroke="#e8a44a" stroke-width="2"/>
  <rect x="46" y="46" width="8" height="8" fill="#e8a44a"/>
  <!-- Полосы (Adidas-style) -->
  <line x1="22" y1="60" x2="22" y2="80" stroke="#fff" stroke-width="2"/>
  <line x1="26" y1="60" x2="26" y2="80" stroke="#fff" stroke-width="2"/>
  <line x1="30" y1="60" x2="30" y2="80" stroke="#fff" stroke-width="2"/>
  <line x1="70" y1="60" x2="70" y2="80" stroke="#fff" stroke-width="2"/>
  <line x1="74" y1="60" x2="74" y2="80" stroke="#fff" stroke-width="2"/>
  <line x1="78" y1="60" x2="78" y2="80" stroke="#fff" stroke-width="2"/>
  <!-- Деньги выглядывают -->
  <rect x="44" y="56" width="12" height="4" fill="#7a3a0a" stroke="#e8a44a" stroke-width="0.5"/>
  <text x="50" y="60" font-size="4" font-weight="900" fill="#e8a44a" text-anchor="middle">₽</text>
</svg>
